<?xml version="1.0" encoding="iso-8859-1"?>
<!-- Generator: Adobe Illustrator 16.0.0, SVG Export Plug-In . SVG Version: 6.00 Build 0)  -->
<!DOCTYPE svg PUBLIC "-//W3C//DTD SVG 1.1//EN" "http://www.w3.org/Graphics/SVG/1.1/DTD/svg11.dtd">
<svg version="1.1" id="Capa_1" xmlns="http://www.w3.org/2000/svg" xmlns:xlink="http://www.w3.org/1999/xlink" x="0px" y="0px"
	 width="424.518px" height="424.518px" viewBox="0 0 424.518 424.518" style="enable-background:new 0 0 424.518 424.518;"
	 xml:space="preserve">
<g>
	<g>
		<g>
			<path d="M367.165,91.818c0,0-83.922-84.396-86.938-87.411c-3.015-3.015-5.636-4.406-10.599-4.406S269.616,0,269.608,0H117.989
				c-35.841,0-65,29.159-65,65v294.518c0,35.842,29.159,65,65,65h188.539c35.842,0,65-29.158,65-65V102.395
				C371.528,97.293,369.04,93.96,367.165,91.818z M284.608,51.353l35.848,36.042h-35.848V51.353z M341.528,359.517
				c0,19.3-15.699,35-35,35H117.989c-19.299,0-35-15.7-35-35V64.999c0-19.299,15.701-35,35-35h136.62v72.396
				c0,8.284,6.717,15,14.999,15h71.92V359.517L341.528,359.517z"/>
			<path d="M301.767,318.908c5.996-7.231,9.606-16.512,9.606-26.618c0-23.029-18.735-41.765-41.764-41.765
				c-23.03,0-41.767,18.733-41.767,41.765c0,10.105,3.61,19.386,9.607,26.618l-22.225,41.549c-1.088,2.03-0.72,4.533,0.905,6.167
				c1.627,1.633,4.127,2.013,6.164,0.938l16.326-8.625l1.887,18.368c0.182,1.767,1.232,3.279,2.742,4.085
				c0.448,0.241,0.938,0.418,1.457,0.521c2.26,0.443,4.545-0.64,5.633-2.669l19.269-36.021l19.266,36.021
				c1.086,2.029,3.371,3.112,5.631,2.669c0.521-0.104,1.011-0.279,1.459-0.521c1.509-0.806,2.562-2.32,2.742-4.085l1.89-18.368
				l16.325,8.625c2.033,1.076,4.537,0.695,6.162-0.938c1.623-1.634,1.99-4.137,0.904-6.167L301.767,318.908z M269.612,313.429
				c-11.657,0-21.141-9.482-21.141-21.139c0-11.657,9.481-21.14,21.141-21.14c11.654,0,21.139,9.48,21.139,21.14
				C290.749,303.945,281.267,313.429,269.612,313.429z"/>
		</g>
	</g>
</g>
<g>
</g>
<g>
</g>
<g>
</g>
<g>
</g>
<g>
</g>
<g>
</g>
<g>
</g>
<g>
</g>
<g>
</g>
<g>
</g>
<g>
</g>
<g>
</g>
<g>
</g>
<g>
</g>
<g>
</g>
</svg>
