<svg width="20" height="18" viewBox="0 0 20 18" fill="none" xmlns="http://www.w3.org/2000/svg">
<path fill-rule="evenodd" clip-rule="evenodd" d="M9.99746 0.250003C10.3148 0.249188 10.605 0.428639 10.7461 0.712863L13.1322 5.52073L18.4538 6.29668C18.7672 6.34239 19.0277 6.56186 19.1258 6.86304C19.224 7.16422 19.1429 7.49502 18.9166 7.71666L15.0459 11.5074L15.965 16.7734C16.0198 17.0871 15.8909 17.4047 15.633 17.5915C15.3751 17.7784 15.0332 17.8019 14.7521 17.6521L9.99964 15.119L5.24822 17.652C4.96699 17.802 4.62487 17.7784 4.36689 17.5912C4.10892 17.4041 3.98025 17.0862 4.03544 16.7724L4.9612 11.5074L1.0843 7.71717C0.857607 7.49555 0.776302 7.1645 0.874535 6.86308C0.972768 6.56165 1.23352 6.34208 1.54727 6.29658L6.89767 5.52074L9.25125 0.716704C9.39085 0.431758 9.68016 0.250818 9.99746 0.250003ZM10.0044 2.96758L8.20087 6.64896C8.07978 6.89612 7.84448 7.06755 7.57211 7.10704L3.455 7.70405L6.44062 10.6229C6.63731 10.8152 6.72644 11.0922 6.6788 11.3631L5.97305 15.3769L9.60758 13.4393C9.85258 13.3087 10.1465 13.3087 10.3916 13.4393L14.0297 15.3784L13.3287 11.3621C13.2815 11.0917 13.3704 10.8154 13.5665 10.6234L16.5484 7.70314L12.4597 7.10695C12.189 7.06749 11.955 6.89777 11.8334 6.6528L10.0044 2.96758Z" fill="#C93E33"/>
</svg>
